
<svg contentScriptType="text/ecmascript" width="800"
     xmlns:xlink="http://www.w3.org/1999/xlink" zoomAndPan="magnify"
     style="width: 800px; height: 600px;" contentStyleType="text/css" id="svg"
     height="600" preserveAspectRatio="xMidYMid meet"
     xmlns="http://www.w3.org/2000/svg" version="1.0">
    <style type="text/css" xml:space="preserve">.knime-title { color: black; fill: black; font-size: 24px; }
.knime-subtitle { color: black; fill: black; font-size: 12px; }
.knime-label, .knime-axis-label, .knime-tick-label, .knime-label text, text.knime-axis-label, text.knime-tick-label { color: black; fill: black; font-size: 12px; }
.knime-legend-label, text.knime-legend-label { color: black; fill: black; font-size: 12px; font-weight: normal; }
.knime-tooltip-caption, .knime-tooltip-key, .knime-tooltip-value { color: black; fill: black; font-size: 12px; }
.knime-tooltip-caption, .knime-tooltip-value { font-weight: bold; }</style><text x="20"
          y="30" id="title" class="knime-title">
        Sunburst Chart
    </text>
    <text x="20" y="46" id="subtitle" class="knime-subtitle"/>
    <g id="plottingSurface" transform="translate(10,60)">
        <g id="sunburstGroup" transform="translate(347.5,285)">
            <circle r="245" opacity="0"/>
            <path fill="#FFFFFF" stroke-width="1"
                  d="M0,141.4508159514583A141.4508159514583,141.4508159514583 0 1,1 0,-141.4508159514583A141.4508159514583,141.4508159514583 0 1,1 0,141.4508159514583Z"
                  fill-rule="evenodd" stroke="white"/>
            <path fill="#1f77b4" stroke-width="1"
                  d="M1.2249019073261744e-14,-200.04166232729287A200.04166232729287,200.04166232729287 0 1,1 -30.051376571813098,197.77153848015075L-21.249532157919585,139.84559598501082A141.4508159514583,141.4508159514583 0 1,0 8.66136444958674e-15,-141.4508159514583Z"
                  fill-rule="evenodd" stroke="white"/>
            <path fill="#8c564b" stroke-width="1"
                  d="M1.5001923289555078e-14,-245A245,245 0 0,1 6.156873383617695,-244.92262637440848L5.027066066928768,-199.9784870265434A200.04166232729287,200.04166232729287 0 0,0 1.2249019073261744e-14,-200.04166232729287Z"
                  fill-rule="evenodd" stroke="white"/>
            <path fill="#8c564b" stroke-width="1"
                  d="M6.156873383617695,-244.92262637440848A245,245 0 0,1 12.30985795404355,-244.69055436847427L10.050956931182533,-199.7890010271691A200.04166232729287,200.04166232729287 0 0,0 5.027066066928768,-199.9784870265434Z"
                  fill-rule="evenodd" stroke="white"/>
            <path fill="#e377c2" stroke-width="1"
                  d="M12.30985795404355,-244.69055436847427A245,245 0 0,1 18.455067354343523,-244.3039305638504L15.068499395612381,-199.47332401258845A200.04166232729287,200.04166232729287 0 0,0 10.050956931182533,-199.7890010271691Z"
                  fill-rule="evenodd" stroke="white"/>
            <path fill="#8c564b" stroke-width="1"
                  d="M18.455067354343523,-244.3039305638504A245,245 0 0,1 24.588620138547654,-243.76299916041853L20.076524272854787,-199.03165537116988A200.04166232729287,200.04166232729287 0 0,0 15.068499395612381,-199.47332401258845Z"
                  fill-rule="evenodd" stroke="white"/>
            <path fill="#e377c2" stroke-width="1"
                  d="M24.588620138547654,-243.76299916041853A245,245 0 0,1 30.706642223254544,-243.06810182204708L25.07186838705828,-198.4642740702938A200.04166232729287,200.04166232729287 0 0,0 20.076524272854787,-199.03165537116988Z"
                  fill-rule="evenodd" stroke="white"/>
            <path fill="#e377c2" stroke-width="1"
                  d="M30.706642223254544,-243.06810182204708A245,245 0 0,1 36.80526933458548,-242.21967746078894L30.051376571813126,-197.77153848015075A200.04166232729287,200.04166232729287 0 0,0 25.07186838705828,-198.4642740702938Z"
                  fill-rule="evenodd" stroke="white"/>
            <path fill="#8c564b" stroke-width="1"
                  d="M36.80526933458548,-242.21967746078894A245,245 0 0,1 42.88064944894263,-241.2182619596553L35.01190366302203,-196.9538861473871A200.04166232729287,200.04166232729287 0 0,0 30.051376571813126,-197.77153848015075Z"
                  fill-rule="evenodd" stroke="white"/>
            <path fill="#8c564b" stroke-width="1"
                  d="M42.88064944894263,-241.2182619596553A245,245 0 0,1 48.92894522602971,-240.0644878341405L39.95031648545324,-196.01183351874138A200.04166232729287,200.04166232729287 0 0,0 35.01190366302203,-196.9538861473871Z"
                  fill-rule="evenodd" stroke="white"/>
            <path fill="#e377c2" stroke-width="1"
                  d="M48.92894522602971,-240.0644878341405A245,245 0 0,1 54.946336432598436,-238.75908383271138L44.86349583172117,-194.94597561484517A200.04166232729287,200.04166232729287 0 0,0 39.95031648545324,-196.01183351874138Z"
                  fill-rule="evenodd" stroke="white"/>
            <path fill="#8c564b" stroke-width="1"
                  d="M54.946336432598436,-238.75908383271138A245,245 0 0,1 60.929022355389414,-237.3028744765146L49.748338432444434,-193.75698565439552A200.04166232729287,200.04166232729287 0 0,0 44.86349583172117,-194.94597561484517Z"
                  fill-rule="evenodd" stroke="white"/>
            <path fill="#8c564b" stroke-width="1"
                  d="M60.929022355389414,-237.3028744765146A245,245 0 0,1 66.87322420174472,-235.69677953859102L54.60175891633782,-192.44561462893557A200.04166232729287,200.04166232729287 0 0,0 49.748338432444434,-193.75698565439552Z"
                  fill-rule="evenodd" stroke="white"/>
            <path fill="#8c564b" stroke-width="1"
                  d="M66.87322420174472,-235.69677953859102A245,245 0 0,1 72.7751874863736,-233.9418134629275L59.420691758998274,-191.01269082851218A200.04166232729287,200.04166232729287 0 0,0 54.60175891633782,-192.44561462893557Z"
                  fill-rule="evenodd" stroke="white"/>
            <path fill="#8c564b" stroke-width="1"
                  d="M72.7751874863736,-233.9418134629275A245,245 0 0,1 78.63118440276637,-232.03908472371234L64.20209321915627,-189.45911931851006A200.04166232729287,200.04166232729287 0 0,0 59.420691758998274,-191.01269082851218Z"
                  fill-rule="evenodd" stroke="white"/>
            <path fill="#8c564b" stroke-width="1"
                  d="M78.63118440276637,-232.03908472371234A245,245 0 0,1 84.4375161777567,-229.98979512519915L68.9429432611679,-187.78588136799328A200.04166232729287,200.04166232729287 0 0,0 64.20209321915627,-189.45911931851006Z"
                  fill-rule="evenodd" stroke="white"/>
            <path fill="#8c564b" stroke-width="1"
                  d="M84.4375161777567,-229.98979512519915A245,245 0 0,1 90.19051540774613,-227.79523904262157L73.6402474625341,-185.99403382991457A200.04166232729287,200.04166232729287 0 0,0 68.9429432611679,-187.78588136799328Z"
                  fill-rule="evenodd" stroke="white"/>
            <path fill="#8c564b" stroke-width="1"
                  d="M90.19051540774613,-227.79523904262157A245,245 0 0,1 95.88654837511467,-225.4568026046382L78.29103890524213,-184.0847084735843A200.04166232729287,200.04166232729287 0 0,0 73.6402474625341,-185.99403382991457Z"
                  fill-rule="evenodd" stroke="white"/>
            <path fill="#8c564b" stroke-width="1"
                  d="M95.88654837511467,-225.4568026046382A245,245 0 0,1 101.52201734335465,-222.97596281782393L82.89238004973437,-182.05911126982102A200.04166232729287,200.04166232729287 0 0,0 78.29103890524213,-184.0847084735843Z"
                  fill-rule="evenodd" stroke="white"/>
            <path fill="#e377c2" stroke-width="1"
                  d="M101.52201734335465,-222.97596281782393A245,245 0 0,1 107.09336282947864,-220.35428663376086L87.44136459032173,-179.91852162923385A200.04166232729287,200.04166232729287 0 0,0 82.89238004973437,-182.05911126982102Z"
                  fill-rule="evenodd" stroke="white"/>
            <path fill="#e377c2" stroke-width="1"
                  d="M107.09336282947864,-220.35428663376086A245,245 0 0,1 112.59706585226459,-217.59342995931837L91.93511929086806,-177.66429159412007A200.04166232729287,200.04166232729287 0 0,0 87.44136459032173,-179.91852162923385Z"
                  fill-rule="evenodd" stroke="white"/>
            <path fill="#8c564b" stroke-width="1"
                  d="M112.59706585226459,-217.59342995931837A245,245 0 0,1 118.0296501549203,-214.69513661074654L96.37080579958808,-175.2978449844856A200.04166232729287,200.04166232729287 0 0,0 91.93511929086806,-177.66429159412007Z"
                  fill-rule="evenodd" stroke="white"/>
            <path fill="#8c564b" stroke-width="1"
                  d="M118.0296501549203,-214.69513661074654A245,245 0 0,1 123.38768440076147,-211.66123721224463L100.74562244181105,-172.8206764987301A200.04166232729287,200.04166232729287 0 0,0 96.37080579958808,-175.2978449844856Z"
                  fill-rule="evenodd" stroke="white"/>
            <path fill="#8c564b" stroke-width="1"
                  d="M123.38768440076147,-211.66123721224463A245,245 0 0,1 128.6677843405175,-208.49364803969948L105.05680598957855,-170.2343507695633A200.04166232729287,200.04166232729287 0 0,0 100.74562244181105,-172.8206764987301Z"
                  fill-rule="evenodd" stroke="white"/>
            <path fill="#e377c2" stroke-width="1"
                  d="M128.6677843405175,-208.49364803969948A245,245 0 0,1 133.86661494989602,-205.19436981032467L109.3016334069585,-167.5405013757495A200.04166232729287,200.04166232729287 0 0,0 105.05680598957855,-170.2343507695633Z"
                  fill-rule="evenodd" stroke="white"/>
            <path fill="#8c564b" stroke-width="1"
                  d="M133.86661494989602,-205.19436981032467A245,245 0 0,1 138.98089253605542,-201.76548641896468L113.47742356997297,-164.74082981030418A200.04166232729287,200.04166232729287 0 0,0 109.3016334069585,-167.5405013757495Z"
                  fill-rule="evenodd" stroke="white"/>
            <path fill="#8c564b" stroke-width="1"
                  d="M138.98089253605542,-201.76548641896468A245,245 0 0,1 144.007386811656,-198.20916362186207L117.58153896005362,-161.83710440579458A200.04166232729287,200.04166232729287 0 0,0 113.47742356997297,-164.74082981030418Z"
                  fill-rule="evenodd" stroke="white"/>
            <path fill="#8c564b" stroke-width="1"
                  d="M144.007386811656,-198.20916362186207A245,245 0 0,1 148.9429229351784,-194.5276476687196L121.61138732995495,-158.83115921742288A200.04166232729287,200.04166232729287 0 0,0 117.58153896005362,-161.83710440579458Z"
                  fill-rule="evenodd" stroke="white"/>
            <path fill="#e377c2" stroke-width="1"
                  d="M148.9429229351784,-194.5276476687196A245,245 0 0,1 153.7843835162217,-190.72326388392065L125.56442334107317,-155.72489286459768A200.04166232729287,200.04166232729287 0 0,0 121.61138732995495,-158.83115921742288Z"
                  fill-rule="evenodd" stroke="white"/>
            <path fill="#8c564b" stroke-width="1"
                  d="M153.7843835162217,-190.72326388392065A245,245 0 0,1 158.52871058451393,-186.79841519780464L129.43815017113664,-152.52026733172528A200.04166232729287,200.04166232729287 0 0,0 125.56442334107317,-155.72489286459768Z"
                  fill-rule="evenodd" stroke="white"/>
            <path fill="#8c564b" stroke-width="1"
                  d="M158.52871058451393,-186.79841519780464A245,245 0 0,1 163.17290752139175,-182.75558062892455L133.23012109125239,-149.21930672897824A200.04166232729287,200.04166232729287 0 0,0 129.43815017113664,-152.52026733172528Z"
                  fill-rule="evenodd" stroke="white"/>
            <path fill="#8c564b" stroke-width="1"
                  d="M163.17290752139175,-182.75558062892455A245,245 0 0,1 167.71404095252882,-178.59731371824572L136.9379410113124,-145.8240960138241A200.04166232729287,200.04166232729287 0 0,0 133.23012109125239,-149.21930672897824Z"
                  fill-rule="evenodd" stroke="white"/>
            <path fill="#8c564b" stroke-width="1"
                  d="M167.71404095252882,-178.59731371824572A245,245 0 0,1 172.14924260071814,-174.32624091627483L140.559267992784,-142.33677967412146A200.04166232729287,200.04166232729287 0 0,0 136.9379410113124,-145.8240960138241Z"
                  fill-rule="evenodd" stroke="white"/>
            <path fill="#8c564b" stroke-width="1"
                  d="M172.14924260071814,-174.32624091627483A245,245 0 0,1 176.47571109753727,-169.94505992413713L144.09181472792835,-138.75956037361547A200.04166232729287,200.04166232729287 0 0,0 140.559267992784,-142.33677967412146Z"
                  fill-rule="evenodd" stroke="white"/>
            <path fill="#e377c2" stroke-width="1"
                  d="M176.47571109753727,-169.94505992413713A245,245 0 0,1 180.6907137527527,-165.45653798965085L147.53334998451302,-135.09469756068833A200.04166232729287,200.04166232729287 0 0,0 144.09181472792835,-138.75956037361547Z"
                  fill-rule="evenodd" stroke="white"/>
            <path fill="#8c564b" stroke-width="1"
                  d="M180.6907137527527,-165.45653798965085A245,245 0 0,1 184.79158828034554,-160.8635101594742L150.88170001510616,-131.34450604124322A200.04166232729287,200.04166232729287 0 0,0 147.53334998451302,-135.09469756068833Z"
                  fill-rule="evenodd" stroke="white"/>
            <path fill="#8c564b" stroke-width="1"
                  d="M184.79158828034554,-160.8635101594742A245,245 0 0,1 188.77574448006845,-156.16887748842888L154.13474993006193,-127.5113545166231A200.04166232729287,200.04166232729287 0 0,0 150.88170001510616,-131.34450604124322Z"
                  fill-rule="evenodd" stroke="white"/>
            <path fill="#e377c2" stroke-width="1"
                  d="M188.77574448006845,-156.16887748842888A245,245 0 0,1 192.64066587347173,-151.37560520713177L157.29044503333014,-123.59766408748837A200.04166232729287,200.04166232729287 0 0,0 154.13474993006193,-127.5113545166231Z"
                  fill-rule="evenodd" stroke="white"/>
            <path fill="#e377c2" stroke-width="1"
                  d="M192.64066587347173,-151.37560520713177A245,245 0 0,1 196.38391129336486,-146.48672084909197L160.34679212024625,-119.60590672459783A200.04166232729287,200.04166232729287 0 0,0 157.29044503333014,-123.59766408748837Z"
                  fill-rule="evenodd" stroke="white"/>
            <path fill="#8c564b" stroke-width="1"
                  d="M196.38391129336486,-146.48672084909197A245,245 0 0,1 200.00311642571018,-141.50531233845544L163.30186073648227,-115.53860370745882A200.04166232729287,200.04166232729287 0 0,0 160.34679212024625,-119.60590672459783Z"
                  fill-rule="evenodd" stroke="white"/>
            <path fill="#8c564b" stroke-width="1"
                  d="M200.00311642571018,-141.50531233845544A245,245 0 0,1 203.4959953029742,-136.4345260396059L166.153784397363,-111.39832403183303A200.04166232729287,200.04166232729287 0 0,0 163.30186073648227,-115.53860370745882Z"
                  fill-rule="evenodd" stroke="white"/>
            <path fill="#e377c2" stroke-width="1"
                  d="M203.4959953029742,-136.4345260396059A245,245 0 0,1 206.8603417479938,-131.27756476985402L168.9007617667779,-107.1876827871039A200.04166232729287,200.04166232729287 0 0,0 166.153784397363,-111.39832403183303Z"
                  fill-rule="evenodd" stroke="white"/>
            <path fill="#8c564b" stroke-width="1"
                  d="M206.8603417479938,-131.27756476985402A245,245 0 0,1 210.0940307674449,-126.0376857764689L171.54105779494324,-102.90933950452995A200.04166232729287,200.04166232729287 0 0,0 168.9007617667779,-107.1876827871039Z"
                  fill-rule="evenodd" stroke="white"/>
            <path fill="#8c564b" stroke-width="1"
                  d="M210.0940307674449,-126.0376857764689A245,245 0 0,1 213.19501989403386,-120.71819867933127L174.07300481429718,-98.56599647742792A200.04166232729287,200.04166232729287 0 0,0 171.54105779494324,-102.90933950452995Z"
                  fill-rule="evenodd" stroke="white"/>
            <path fill="#8c564b" stroke-width="1"
                  d="M213.19501989403386,-120.71819867933127A245,245 0 0,1 216.16135047656363,-115.32246338050632L176.49500359283408,-94.16039705434629A200.04166232729287,200.04166232729287 0 0,0 174.07300481429718,-98.56599647742792Z"
                  fill-rule="evenodd" stroke="white"/>
            <path fill="#e377c2" stroke-width="1"
                  d="M216.16135047656363,-115.32246338050632A245,245 0 0,1 218.99114891705972,-109.85388794205775L178.80552434421372,-89.69532390630769A200.04166232729287,200.04166232729287 0 0,0 176.49500359283408,-94.16039705434629Z"
                  fill-rule="evenodd" stroke="white"/>
            <path fill="#8c564b" stroke-width="1"
                  d="M218.99114891705972,-109.85388794205775A245,245 0 0,1 221.68262785417488,-104.31592643344258L181.00310769400727,-85.17359726921407A200.04166232729287,200.04166232729287 0 0,0 178.80552434421372,-89.69532390630769Z"
                  fill-rule="evenodd" stroke="white"/>
            <path fill="#8c564b" stroke-width="1"
                  d="M221.68262785417488,-104.31592643344258A245,245 0 0,1 224.2340872921249,-98.71207674984714L183.08636560146923,-80.59807316252547A200.04166232729287,200.04166232729287 0 0,0 181.00310769400727,-85.17359726921407Z"
                  fill-rule="evenodd" stroke="white"/>
            <path fill="#8c564b" stroke-width="1"
                  d="M224.2340872921249,-98.71207674984714A245,245 0 0,1 226.6439156744423,-93.04587840284105L185.05398223625397,-75.97164158533667A200.04166232729287,200.04166232729287 0 0,0 183.08636560146923,-80.59807316252547Z"
                  fill-rule="evenodd" stroke="white"/>
            <path fill="#8c564b" stroke-width="1"
                  d="M226.6439156744423,-93.04587840284105A245,245 0 0,1 228.91059090187002,-87.32091028474622L186.9047148095223,-71.297224690992A200.04166232729287,200.04166232729287 0 0,0 185.05398223625397,-75.97164158533667Z"
                  fill-rule="evenodd" stroke="white"/>
            <path fill="#8c564b" stroke-width="1"
                  d="M228.91059090187002,-87.32091028474622A245,245 0 0,1 231.03268129375186,-81.54078840813152L188.63739435891338,-66.57777494139054A200.04166232729287,200.04166232729287 0 0,0 186.9047148095223,-71.297224690992Z"
                  fill-rule="evenodd" stroke="white"/>
            <path fill="#e377c2" stroke-width="1"
                  d="M231.03268129375186,-81.54078840813152A245,245 0 0,1 233.0088464923127,-75.7091636218619L190.25092648688667,-61.81627324214802A200.04166232729287,200.04166232729287 0 0,0 188.63739435891338,-66.57777494139054Z"
                  fill-rule="evenodd" stroke="white"/>
            <path fill="#e377c2" stroke-width="1"
                  d="M233.0088464923127,-75.7091636218619A245,245 0 0,1 234.83783830925717,-69.82971930514394L191.74429205196662,-57.01572705979285A200.04166232729287,200.04166232729287 0 0,0 190.25092648688667,-61.81627324214802Z"
                  fill-rule="evenodd" stroke="white"/>
            <path fill="#8c564b" stroke-width="1"
                  d="M234.83783830925717,-69.82971930514394A245,245 0 0,1 236.51850151415218,-63.90616904102449L193.11654781245443,-52.17916852218579A200.04166232729287,200.04166232729287 0 0,0 191.74429205196662,-57.01572705979285Z"
                  fill-rule="evenodd" stroke="white"/>
            <path fill="#8c564b" stroke-width="1"
                  d="M236.51850151415218,-63.90616904102449A245,245 0 0,1 238.04977456409517,-57.942254270812285L194.36682702219966,-47.30965250336316A200.04166232729287,200.04166232729287 0 0,0 193.11654781245443,-52.17916852218579Z"
                  fill-rule="evenodd" stroke="white"/>
            <path fill="#8c564b" stroke-width="1"
                  d="M238.04977456409517,-57.942254270812285A245,245 0 0,1 239.43069027420745,-51.94174193090313L195.49433997805573,-42.4102546940127A200.04166232729287,200.04166232729287 0 0,0 194.36682702219966,-47.30965250336316Z"
                  fill-rule="evenodd" stroke="white"/>
            <path fill="#8c564b" stroke-width="1"
                  d="M239.43069027420745,-51.94174193090313A245,245 0 0,1 240.66037642852876,-45.90842207350227L196.49837451867324,-37.48406965880155A200.04166232729287,200.04166232729287 0 0,0 195.49433997805573,-42.4102546940127Z"
                  fill-rule="evenodd" stroke="white"/>
            <path fill="#8c564b" stroke-width="1"
                  d="M240.66037642852876,-45.90842207350227A245,245 0 0,1 241.73805633092772,-39.846105472746224L197.3782964743165,-32.534208881782845A200.04166232729287,200.04166232729287 0 0,0 196.49837451867324,-37.48406965880155Z"
                  fill-rule="evenodd" stroke="white"/>
            <path fill="#8c564b" stroke-width="1"
                  d="M241.73805633092772,-39.846105472746224A245,245 0 0,1 242.6630492956796,-33.75862121773607L198.1335500674186,-27.563798801115688A200.04166232729287,200.04166232729287 0 0,0 197.3782964743165,-32.534208881782845Z"
                  fill-rule="evenodd" stroke="white"/>
            <path fill="#8c564b" stroke-width="1"
                  d="M242.6630492956796,-33.75862121773607A245,245 0 0,1 243.43477107740208,-27.64981429400276L198.7636582636225,-22.575978834339818A200.04166232729287,200.04166232729287 0 0,0 198.1335500674186,-27.563798801115688Z"
                  fill-rule="evenodd" stroke="white"/>
            <path fill="#8c564b" stroke-width="1"
                  d="M243.43477107740208,-27.64981429400276A245,245 0 0,1 244.05273424007729,-21.523543154931772L199.26822307308606,-17.573899395452152A200.04166232729287,200.04166232729287 0 0,0 198.7636582636225,-22.575978834339818Z"
                  fill-rule="evenodd" stroke="white"/>
            <path fill="#e377c2" stroke-width="1"
                  d="M244.05273424007729,-21.523543154931772A245,245 0 0,1 244.51654846492656,-15.383677284681474L199.64692580186113,-12.560719905037947A200.04166232729287,200.04166232729287 0 0,0 199.26822307308606,-17.573899395452152Z"
                  fill-rule="evenodd" stroke="white"/>
            <path fill="#8c564b" stroke-width="1"
                  d="M244.51654846492656,-15.383677284681474A245,245 0 0,1 244.8259207969444,-9.23409475413366L199.89952725318733,-7.539606794712784A200.04166232729287,200.04166232729287 0 0,0 199.64692580186113,-12.560719905037947Z"
                  fill-rule="evenodd" stroke="white"/>
            <path fill="#e377c2" stroke-width="1"
                  d="M244.8259207969444,-9.23409475413366A245,245 0 0,1 244.98065582993496,-3.078679771421089L200.02586787857388,-2.513731507136672A200.04166232729287,200.04166232729287 0 0,0 199.89952725318733,-7.539606794712784Z"
                  fill-rule="evenodd" stroke="white"/>
            <path fill="#8c564b" stroke-width="1"
                  d="M244.98065582993496,-3.078679771421089A245,245 0 0,1 244.98065582993496,3.0786797714216325L200.02586787857388,2.513731507137116A200.04166232729287,200.04166232729287 0 0,0 200.02586787857388,-2.513731507136672Z"
                  fill-rule="evenodd" stroke="white"/>
            <path fill="#8c564b" stroke-width="1"
                  d="M244.98065582993496,3.0786797714216325A245,245 0 0,1 244.82592079694436,9.234094754134203L199.8995272531873,7.539606794713227A200.04166232729287,200.04166232729287 0 0,0 200.02586787857388,2.513731507137116Z"
                  fill-rule="evenodd" stroke="white"/>
            <path fill="#e377c2" stroke-width="1"
                  d="M244.82592079694436,9.234094754134203A245,245 0 0,1 244.5165484649265,15.383677284682069L199.6469258018611,12.560719905038432A200.04166232729287,200.04166232729287 0 0,0 199.8995272531873,7.539606794713227Z"
                  fill-rule="evenodd" stroke="white"/>
            <path fill="#e377c2" stroke-width="1"
                  d="M244.5165484649265,15.383677284682069A245,245 0 0,1 244.05273424007723,21.52354315493237L199.26822307308603,17.57389939545264A200.04166232729287,200.04166232729287 0 0,0 199.6469258018611,12.560719905038432Z"
                  fill-rule="evenodd" stroke="white"/>
            <path fill="#e377c2" stroke-width="1"
                  d="M244.05273424007723,21.52354315493237A245,245 0 0,1 243.43477107740202,27.6498142940033L198.76365826362243,22.575978834340262A200.04166232729287,200.04166232729287 0 0,0 199.26822307308603,17.57389939545264Z"
                  fill-rule="evenodd" stroke="white"/>
            <path fill="#8c564b" stroke-width="1"
                  d="M243.43477107740202,27.6498142940033A245,245 0 0,1 242.6630492956795,33.75862121773661L198.13355006741855,27.563798801116125A200.04166232729287,200.04166232729287 0 0,0 198.76365826362243,22.575978834340262Z"
                  fill-rule="evenodd" stroke="white"/>
            <path fill="#8c564b" stroke-width="1"
                  d="M242.6630492956795,33.75862121773661A245,245 0 0,1 241.73805633092763,39.846105472746764L197.37829647431644,32.534208881783286A200.04166232729287,200.04166232729287 0 0,0 198.13355006741855,27.563798801116125Z"
                  fill-rule="evenodd" stroke="white"/>
            <path fill="#e377c2" stroke-width="1"
                  d="M241.73805633092763,39.846105472746764A245,245 0 0,1 240.66037642852868,45.90842207350281L196.49837451867316,37.48406965880199A200.04166232729287,200.04166232729287 0 0,0 197.37829647431644,32.534208881783286Z"
                  fill-rule="evenodd" stroke="white"/>
            <path fill="#8c564b" stroke-width="1"
                  d="M240.66037642852868,45.90842207350281A245,245 0 0,1 239.43069027420734,51.94174193090366L195.49433997805565,42.41025469401314A200.04166232729287,200.04166232729287 0 0,0 196.49837451867316,37.48406965880199Z"
                  fill-rule="evenodd" stroke="white"/>
            <path fill="#8c564b" stroke-width="1"
                  d="M239.43069027420734,51.94174193090366A245,245 0 0,1 238.04977456409503,57.94225427081287L194.36682702219954,47.30965250336364A200.04166232729287,200.04166232729287 0 0,0 195.49433997805565,42.41025469401314Z"
                  fill-rule="evenodd" stroke="white"/>
            <path fill="#8c564b" stroke-width="1"
                  d="M238.04977456409503,57.94225427081287A245,245 0 0,1 236.518501514152,63.906169041025066L193.11654781245431,52.17916852218626A200.04166232729287,200.04166232729287 0 0,0 194.36682702219954,47.30965250336364Z"
                  fill-rule="evenodd" stroke="white"/>
            <path fill="#8c564b" stroke-width="1"
                  d="M236.518501514152,63.906169041025066A245,245 0 0,1 234.837838309257,69.82971930514447L191.74429205196648,57.01572705979327A200.04166232729287,200.04166232729287 0 0,0 193.11654781245431,52.17916852218626Z"
                  fill-rule="evenodd" stroke="white"/>
            <path fill="#8c564b" stroke-width="1"
                  d="M234.837838309257,69.82971930514447A245,245 0 0,1 233.00884649231253,75.70916362186243L190.25092648688656,61.81627324214844A200.04166232729287,200.04166232729287 0 0,0 191.74429205196648,57.01572705979327Z"
                  fill-rule="evenodd" stroke="white"/>
            <path fill="#8c564b" stroke-width="1"
                  d="M233.00884649231253,75.70916362186243A245,245 0 0,1 231.0326812937517,81.54078840813203L188.63739435891327,66.57777494139096A200.04166232729287,200.04166232729287 0 0,0 190.25092648688656,61.81627324214844Z"
                  fill-rule="evenodd" stroke="white"/>
            <path fill="#8c564b" stroke-width="1"
                  d="M231.0326812937517,81.54078840813203A245,245 0 0,1 228.91059090186982,87.32091028474672L186.90471480952215,71.29722469099241A200.04166232729287,200.04166232729287 0 0,0 188.63739435891327,66.57777494139096Z"
                  fill-rule="evenodd" stroke="white"/>
            <path fill="#8c564b" stroke-width="1"
                  d="M228.91059090186982,87.32091028474672A245,245 0 0,1 226.6439156744421,93.04587840284155L185.05398223625383,75.97164158533708A200.04166232729287,200.04166232729287 0 0,0 186.90471480952215,71.29722469099241Z"
                  fill-rule="evenodd" stroke="white"/>
            <path fill="#e377c2" stroke-width="1"
                  d="M226.6439156744421,93.04587840284155A245,245 0 0,1 224.23408729212466,98.71207674984768L183.08636560146903,80.5980731625259A200.04166232729287,200.04166232729287 0 0,0 185.05398223625383,75.97164158533708Z"
                  fill-rule="evenodd" stroke="white"/>
            <path fill="#e377c2" stroke-width="1"
                  d="M224.23408729212466,98.71207674984768A245,245 0 0,1 221.68262785417463,104.31592643344312L181.00310769400707,85.17359726921451A200.04166232729287,200.04166232729287 0 0,0 183.08636560146903,80.5980731625259Z"
                  fill-rule="evenodd" stroke="white"/>
            <path fill="#e377c2" stroke-width="1"
                  d="M221.68262785417463,104.31592643344312A245,245 0 0,1 218.9911489170595,109.85388794205818L178.80552434421355,89.69532390630805A200.04166232729287,200.04166232729287 0 0,0 181.00310769400707,85.17359726921451Z"
                  fill-rule="evenodd" stroke="white"/>
            <path fill="#8c564b" stroke-width="1"
                  d="M218.9911489170595,109.85388794205818A245,245 0 0,1 216.1613504765634,115.32246338050679L176.49500359283388,94.16039705434669A200.04166232729287,200.04166232729287 0 0,0 178.80552434421355,89.69532390630805Z"
                  fill-rule="evenodd" stroke="white"/>
            <path fill="#8c564b" stroke-width="1"
                  d="M216.1613504765634,115.32246338050679A245,245 0 0,1 213.19501989403358,120.71819867933179L174.07300481429695,98.56599647742833A200.04166232729287,200.04166232729287 0 0,0 176.49500359283388,94.16039705434669Z"
                  fill-rule="evenodd" stroke="white"/>
            <path fill="#8c564b" stroke-width="1"
                  d="M213.19501989403358,120.71819867933179A245,245 0 0,1 210.09403076744462,126.0376857764694L171.54105779494301,102.90933950453035A200.04166232729287,200.04166232729287 0 0,0 174.07300481429695,98.56599647742833Z"
                  fill-rule="evenodd" stroke="white"/>
            <path fill="#8c564b" stroke-width="1"
                  d="M210.09403076744462,126.0376857764694A245,245 0 0,1 206.8603417479935,131.2775647698545L168.9007617667776,107.18768278710431A200.04166232729287,200.04166232729287 0 0,0 171.54105779494301,102.90933950453035Z"
                  fill-rule="evenodd" stroke="white"/>
            <path fill="#e377c2" stroke-width="1"
                  d="M206.8603417479935,131.2775647698545A245,245 0 0,1 203.49599530297388,136.43452603960634L166.15378439736276,111.39832403183338A200.04166232729287,200.04166232729287 0 0,0 168.9007617667776,107.18768278710431Z"
                  fill-rule="evenodd" stroke="white"/>
            <path fill="#e377c2" stroke-width="1"
                  d="M203.49599530297388,136.43452603960634A245,245 0 0,1 200.00311642570983,141.5053123384559L163.301860736482,115.5386037074592A200.04166232729287,200.04166232729287 0 0,0 166.15378439736276,111.39832403183338Z"
                  fill-rule="evenodd" stroke="white"/>
            <path fill="#8c564b" stroke-width="1"
                  d="M200.00311642570983,141.5053123384559A245,245 0 0,1 196.38391129336455,146.48672084909242L160.346792120246,119.60590672459819A200.04166232729287,200.04166232729287 0 0,0 163.301860736482,115.5386037074592Z"
                  fill-rule="evenodd" stroke="white"/>
            <path fill="#e377c2" stroke-width="1"
                  d="M196.38391129336455,146.48672084909242A245,245 0 0,1 192.6406658734714,151.37560520713222L157.29044503332986,123.59766408748875A200.04166232729287,200.04166232729287 0 0,0 160.346792120246,119.60590672459819Z"
                  fill-rule="evenodd" stroke="white"/>
            <path fill="#7f7f7f" stroke-width="1"
                  d="M192.6406658734714,151.37560520713222A245,245 0 0,1 188.77574448006806,156.1688774884293L154.13474993006162,127.51135451662346A200.04166232729287,200.04166232729287 0 0,0 157.29044503332986,123.59766408748875Z"
                  fill-rule="evenodd" stroke="white"/>
            <path fill="#7f7f7f" stroke-width="1"
                  d="M188.77574448006806,156.1688774884293A245,245 0 0,1 184.79158828034517,160.86351015947463L150.88170001510588,131.34450604124353A200.04166232729287,200.04166232729287 0 0,0 154.13474993006162,127.51135451662346Z"
                  fill-rule="evenodd" stroke="white"/>
            <path fill="#7f7f7f" stroke-width="1"
                  d="M184.79158828034517,160.86351015947463A245,245 0 0,1 180.69071375275232,165.4565379896513L147.5333499845127,135.0946975606887A200.04166232729287,200.04166232729287 0 0,0 150.88170001510588,131.34450604124353Z"
                  fill-rule="evenodd" stroke="white"/>
            <path fill="#7f7f7f" stroke-width="1"
                  d="M180.69071375275232,165.4565379896513A245,245 0 0,1 176.47571109753693,169.94505992413747L144.09181472792804,138.75956037361576A200.04166232729287,200.04166232729287 0 0,0 147.5333499845127,135.0946975606887Z"
                  fill-rule="evenodd" stroke="white"/>
            <path fill="#7f7f7f" stroke-width="1"
                  d="M176.47571109753693,169.94505992413747A245,245 0 0,1 172.14924260071774,174.3262409162752L140.55926799278367,142.33677967412177A200.04166232729287,200.04166232729287 0 0,0 144.09181472792804,138.75956037361576Z"
                  fill-rule="evenodd" stroke="white"/>
            <path fill="#7f7f7f" stroke-width="1"
                  d="M172.14924260071774,174.3262409162752A245,245 0 0,1 167.71404095252845,178.5973137182461L136.9379410113121,145.8240960138244A200.04166232729287,200.04166232729287 0 0,0 140.55926799278367,142.33677967412177Z"
                  fill-rule="evenodd" stroke="white"/>
            <path fill="#7f7f7f" stroke-width="1"
                  d="M167.71404095252845,178.5973137182461A245,245 0 0,1 163.17290752139132,182.75558062892492L133.23012109125204,149.21930672897855A200.04166232729287,200.04166232729287 0 0,0 136.9379410113121,145.8240960138244Z"
                  fill-rule="evenodd" stroke="white"/>
            <path fill="#7f7f7f" stroke-width="1"
                  d="M163.17290752139132,182.75558062892492A245,245 0 0,1 158.52871058451348,186.79841519780504L129.43815017113627,152.5202673317256A200.04166232729287,200.04166232729287 0 0,0 133.23012109125204,149.21930672897855Z"
                  fill-rule="evenodd" stroke="white"/>
            <path fill="#7f7f7f" stroke-width="1"
                  d="M158.52871058451348,186.79841519780504A245,245 0 0,1 153.78438351622128,190.72326388392102L125.56442334107282,155.72489286459796A200.04166232729287,200.04166232729287 0 0,0 129.43815017113627,152.5202673317256Z"
                  fill-rule="evenodd" stroke="white"/>
            <path fill="#7f7f7f" stroke-width="1"
                  d="M153.78438351622128,190.72326388392102A245,245 0 0,1 148.94292293517793,194.52764766871994L121.61138732995457,158.83115921742316A200.04166232729287,200.04166232729287 0 0,0 125.56442334107282,155.72489286459796Z"
                  fill-rule="evenodd" stroke="white"/>
            <path fill="#7f7f7f" stroke-width="1"
                  d="M148.94292293517793,194.52764766871994A245,245 0 0,1 144.00738681165558,198.20916362186236L117.58153896005327,161.83710440579483A200.04166232729287,200.04166232729287 0 0,0 121.61138732995457,158.83115921742316Z"
                  fill-rule="evenodd" stroke="white"/>
            <path fill="#7f7f7f" stroke-width="1"
                  d="M144.00738681165558,198.20916362186236A245,245 0 0,1 138.98089253605494,201.765486418965L113.47742356997257,164.74082981030446A200.04166232729287,200.04166232729287 0 0,0 117.58153896005327,161.83710440579483Z"
                  fill-rule="evenodd" stroke="white"/>
            <path fill="#7f7f7f" stroke-width="1"
                  d="M138.98089253605494,201.765486418965A245,245 0 0,1 133.8666149498956,205.19436981032496L109.30163340695815,167.54050137574973A200.04166232729287,200.04166232729287 0 0,0 113.47742356997257,164.74082981030446Z"
                  fill-rule="evenodd" stroke="white"/>
            <path fill="#7f7f7f" stroke-width="1"
                  d="M133.8666149498956,205.19436981032496A245,245 0 0,1 128.66778434051704,208.49364803969974L105.05680598957817,170.23435076956352A200.04166232729287,200.04166232729287 0 0,0 109.30163340695815,167.54050137574973Z"
                  fill-rule="evenodd" stroke="white"/>
            <path fill="#7f7f7f" stroke-width="1"
                  d="M128.66778434051704,208.49364803969974A245,245 0 0,1 123.38768440076096,211.6612372122449L100.74562244181064,172.82067649873034A200.04166232729287,200.04166232729287 0 0,0 105.05680598957817,170.23435076956352Z"
                  fill-rule="evenodd" stroke="white"/>
            <path fill="#7f7f7f" stroke-width="1"
                  d="M123.38768440076096,211.6612372122449A245,245 0 0,1 118.02965015491984,214.6951366107468L96.37080579958769,175.2978449844858A200.04166232729287,200.04166232729287 0 0,0 100.74562244181064,172.82067649873034Z"
                  fill-rule="evenodd" stroke="white"/>
            <path fill="#7f7f7f" stroke-width="1"
                  d="M118.02965015491984,214.6951366107468A245,245 0 0,1 112.59706585226407,217.59342995931866L91.93511929086762,177.6642915941203A200.04166232729287,200.04166232729287 0 0,0 96.37080579958769,175.2978449844858Z"
                  fill-rule="evenodd" stroke="white"/>
            <path fill="#7f7f7f" stroke-width="1"
                  d="M112.59706585226407,217.59342995931866A245,245 0 0,1 107.09336282947815,220.3542866337611L87.44136459032133,179.91852162923405A200.04166232729287,200.04166232729287 0 0,0 91.93511929086762,177.6642915941203Z"
                  fill-rule="evenodd" stroke="white"/>
            <path fill="#7f7f7f" stroke-width="1"
                  d="M107.09336282947815,220.3542866337611A245,245 0 0,1 101.52201734335414,222.97596281782415L82.89238004973396,182.0591112698212A200.04166232729287,200.04166232729287 0 0,0 87.44136459032133,179.91852162923405Z"
                  fill-rule="evenodd" stroke="white"/>
            <path fill="#7f7f7f" stroke-width="1"
                  d="M101.52201734335414,222.97596281782415A245,245 0 0,1 95.88654837511417,225.4568026046384L78.29103890524172,184.0847084735845A200.04166232729287,200.04166232729287 0 0,0 82.89238004973396,182.0591112698212Z"
                  fill-rule="evenodd" stroke="white"/>
            <path fill="#7f7f7f" stroke-width="1"
                  d="M95.88654837511417,225.4568026046384A245,245 0 0,1 90.19051540774562,227.79523904262177L73.6402474625337,185.9940338299147A200.04166232729287,200.04166232729287 0 0,0 78.29103890524172,184.0847084735845Z"
                  fill-rule="evenodd" stroke="white"/>
            <path fill="#7f7f7f" stroke-width="1"
                  d="M90.19051540774562,227.79523904262177A245,245 0 0,1 84.43751617775615,229.98979512519935L68.94294326116744,187.78588136799345A200.04166232729287,200.04166232729287 0 0,0 73.6402474625337,185.9940338299147Z"
                  fill-rule="evenodd" stroke="white"/>
            <path fill="#7f7f7f" stroke-width="1"
                  d="M84.43751617775615,229.98979512519935A245,245 0 0,1 78.63118440276585,232.0390847237125L64.20209321915586,189.4591193185102A200.04166232729287,200.04166232729287 0 0,0 68.94294326116744,187.78588136799345Z"
                  fill-rule="evenodd" stroke="white"/>
            <path fill="#7f7f7f" stroke-width="1"
                  d="M78.63118440276585,232.0390847237125A245,245 0 0,1 72.77518748637303,233.94181346292768L59.420691758997805,191.01269082851232A200.04166232729287,200.04166232729287 0 0,0 64.20209321915586,189.4591193185102Z"
                  fill-rule="evenodd" stroke="white"/>
            <path fill="#7f7f7f" stroke-width="1"
                  d="M72.77518748637303,233.94181346292768A245,245 0 0,1 66.87322420174421,235.6967795385912L54.6017589163374,192.44561462893572A200.04166232729287,200.04166232729287 0 0,0 59.420691758997805,191.01269082851232Z"
                  fill-rule="evenodd" stroke="white"/>
            <path fill="#7f7f7f" stroke-width="1"
                  d="M66.87322420174421,235.6967795385912A245,245 0 0,1 60.92902235538889,237.30287447651475L49.74833843244401,193.75698565439563A200.04166232729287,200.04166232729287 0 0,0 54.6017589163374,192.44561462893572Z"
                  fill-rule="evenodd" stroke="white"/>
            <path fill="#7f7f7f" stroke-width="1"
                  d="M60.92902235538889,237.30287447651475A245,245 0 0,1 54.9463364325979,238.7590838327115L44.86349583172073,194.94597561484525A200.04166232729287,200.04166232729287 0 0,0 49.74833843244401,193.75698565439563Z"
                  fill-rule="evenodd" stroke="white"/>
            <path fill="#7f7f7f" stroke-width="1"
                  d="M54.9463364325979,238.7590838327115A245,245 0 0,1 48.928945226029185,240.06448783414058L39.95031648545281,196.01183351874147A200.04166232729287,200.04166232729287 0 0,0 44.86349583172073,194.94597561484525Z"
                  fill-rule="evenodd" stroke="white"/>
            <path fill="#7f7f7f" stroke-width="1"
                  d="M48.928945226029185,240.06448783414058A245,245 0 0,1 42.880649448942044,241.21826195965542L35.011903663021556,196.9538861473872A200.04166232729287,200.04166232729287 0 0,0 39.95031648545281,196.01183351874147Z"
                  fill-rule="evenodd" stroke="white"/>
            <path fill="#7f7f7f" stroke-width="1"
                  d="M42.880649448942044,241.21826195965542A245,245 0 0,1 36.80526933458494,242.21967746078903L30.051376571812686,197.7715384801508A200.04166232729287,200.04166232729287 0 0,0 35.011903663021556,196.9538861473872Z"
                  fill-rule="evenodd" stroke="white"/>
            <path fill="#7f7f7f" stroke-width="1"
                  d="M36.80526933458494,242.21967746078903A245,245 0 0,1 30.70664222325395,243.06810182204714L25.071868387057798,198.46427407029384A200.04166232729287,200.04166232729287 0 0,0 30.051376571812686,197.7715384801508Z"
                  fill-rule="evenodd" stroke="white"/>
            <path fill="#7f7f7f" stroke-width="1"
                  d="M30.70664222325395,243.06810182204714A245,245 0 0,1 24.58862013854711,243.7629991604186L20.076524272854346,199.03165537116993A200.04166232729287,200.04166232729287 0 0,0 25.071868387057798,198.46427407029384Z"
                  fill-rule="evenodd" stroke="white"/>
            <path fill="#7f7f7f" stroke-width="1"
                  d="M24.58862013854711,243.7629991604186A245,245 0 0,1 18.45506735434293,244.30393056385046L15.068499395611894,199.47332401258848A200.04166232729287,200.04166232729287 0 0,0 20.076524272854346,199.03165537116993Z"
                  fill-rule="evenodd" stroke="white"/>
            <path fill="#7f7f7f" stroke-width="1"
                  d="M18.45506735434293,244.30393056385046A245,245 0 0,1 12.309857954043007,244.6905543684743L10.050956931182087,199.78900102716912A200.04166232729287,200.04166232729287 0 0,0 15.068499395611894,199.47332401258848Z"
                  fill-rule="evenodd" stroke="white"/>
            <path fill="#7f7f7f" stroke-width="1"
                  d="M12.309857954043007,244.6905543684743A245,245 0 0,1 6.156873383617097,244.9226263744085L5.027066066928279,199.97848702654343A200.04166232729287,200.04166232729287 0 0,0 10.050956931182087,199.78900102716912Z"
                  fill-rule="evenodd" stroke="white"/>
            <path fill="#7f7f7f" stroke-width="1"
                  d="M6.156873383617097,244.9226263744085A245,245 0 0,1 -5.290073587767717e-13,245L-4.319326997268409e-13,200.04166232729287A200.04166232729287,200.04166232729287 0 0,0 5.027066066928279,199.97848702654343Z"
                  fill-rule="evenodd" stroke="white"/>
            <path fill="#7f7f7f" stroke-width="1"
                  d="M-5.290073587767717e-13,245A245,245 0 0,1 -6.156873383618154,244.92262637440848L-5.027066066929143,199.9784870265434A200.04166232729287,200.04166232729287 0 0,0 -4.319326997268409e-13,200.04166232729287Z"
                  fill-rule="evenodd" stroke="white"/>
            <path fill="#7f7f7f" stroke-width="1"
                  d="M-6.156873383618154,244.92262637440848A245,245 0 0,1 -12.309857954044064,244.69055436847424L-10.050956931182952,199.78900102716906A200.04166232729287,200.04166232729287 0 0,0 -5.027066066929143,199.9784870265434Z"
                  fill-rule="evenodd" stroke="white"/>
            <path fill="#7f7f7f" stroke-width="1"
                  d="M-12.309857954044064,244.69055436847424A245,245 0 0,1 -18.45506735434398,244.3039305638504L-15.068499395612756,199.47332401258842A200.04166232729287,200.04166232729287 0 0,0 -10.050956931182952,199.78900102716906Z"
                  fill-rule="evenodd" stroke="white"/>
            <path fill="#7f7f7f" stroke-width="1"
                  d="M-18.45506735434398,244.3039305638504A245,245 0 0,1 -24.588620138548166,243.7629991604185L-20.076524272855206,199.03165537116985A200.04166232729287,200.04166232729287 0 0,0 -15.068499395612756,199.47332401258842Z"
                  fill-rule="evenodd" stroke="white"/>
            <path fill="#7f7f7f" stroke-width="1"
                  d="M-24.588620138548166,243.7629991604185A245,245 0 0,1 -30.70664222325511,243.068101822047L-25.071868387058743,198.46427407029373A200.04166232729287,200.04166232729287 0 0,0 -20.076524272855206,199.03165537116985Z"
                  fill-rule="evenodd" stroke="white"/>
            <path fill="#7f7f7f" stroke-width="1"
                  d="M-30.70664222325511,243.068101822047A245,245 0 0,1 -36.805269334585994,242.21967746078886L-30.05137657181354,197.7715384801507A200.04166232729287,200.04166232729287 0 0,0 -25.071868387058743,198.46427407029373Z"
                  fill-rule="evenodd" stroke="white"/>
            <path fill="#ff7f0e" stroke-width="1"
                  d="M-185.0539822362539,-75.97164158533693A200.04166232729287,200.04166232729287 0 0,1 -117.58153896005358,-161.8371044057946L-83.14270354100412,-114.43611397293266A141.4508159514583,141.4508159514583 0 0,0 -130.85292572483002,-53.72006294286566Z"
                  fill-rule="evenodd" stroke="white"/>
            <path fill="#e377c2" stroke-width="1"
                  d="M-226.64391567444216,-93.04587840284138A245,245 0 0,1 -224.23408729212483,-98.7120767498473L-183.08636560146917,-80.5980731625256A200.04166232729287,200.04166232729287 0 0,0 -185.0539822362539,-75.97164158533693Z"
                  fill-rule="evenodd" stroke="white"/>
            <path fill="#e377c2" stroke-width="1"
                  d="M-224.23408729212483,-98.7120767498473A245,245 0 0,1 -221.68262785417477,-104.3159264334428L-181.00310769400718,-85.17359726921424A200.04166232729287,200.04166232729287 0 0,0 -183.08636560146917,-80.5980731625256Z"
                  fill-rule="evenodd" stroke="white"/>
            <path fill="#e377c2" stroke-width="1"
                  d="M-221.68262785417477,-104.3159264334428A245,245 0 0,1 -218.9911489170596,-109.85388794205797L-178.80552434421364,-89.69532390630788A200.04166232729287,200.04166232729287 0 0,0 -181.00310769400718,-85.17359726921424Z"
                  fill-rule="evenodd" stroke="white"/>
            <path fill="#e377c2" stroke-width="1"
                  d="M-218.9911489170596,-109.85388794205797A245,245 0 0,1 -216.1613504765635,-115.32246338050658L-176.49500359283397,-94.1603970543465A200.04166232729287,200.04166232729287 0 0,0 -178.80552434421364,-89.69532390630788Z"
                  fill-rule="evenodd" stroke="white"/>
            <path fill="#e377c2" stroke-width="1"
                  d="M-216.1613504765635,-115.32246338050658A245,245 0 0,1 -213.19501989403372,-120.71819867933158L-174.07300481429706,-98.56599647742817A200.04166232729287,200.04166232729287 0 0,0 -176.49500359283397,-94.1603970543465Z"
                  fill-rule="evenodd" stroke="white"/>
            <path fill="#e377c2" stroke-width="1"
                  d="M-213.19501989403372,-120.71819867933158A245,245 0 0,1 -210.09403076744482,-126.03768577646908L-171.54105779494316,-102.90933950453008A200.04166232729287,200.04166232729287 0 0,0 -174.07300481429706,-98.56599647742817Z"
                  fill-rule="evenodd" stroke="white"/>
            <path fill="#e377c2" stroke-width="1"
                  d="M-210.09403076744482,-126.03768577646908A245,245 0 0,1 -206.86034174799366,-131.2775647698542L-168.90076176677778,-107.18768278710405A200.04166232729287,200.04166232729287 0 0,0 -171.54105779494316,-102.90933950453008Z"
                  fill-rule="evenodd" stroke="white"/>
            <path fill="#e377c2" stroke-width="1"
                  d="M-206.86034174799366,-131.2775647698542A245,245 0 0,1 -203.49599530297405,-136.43452603960617L-166.1537843973629,-111.39832403183323A200.04166232729287,200.04166232729287 0 0,0 -168.90076176677778,-107.18768278710405Z"
                  fill-rule="evenodd" stroke="white"/>
            <path fill="#e377c2" stroke-width="1"
                  d="M-203.49599530297405,-136.43452603960617A245,245 0 0,1 -200.00311642570998,-141.50531233845567L-163.30186073648213,-115.53860370745902A200.04166232729287,200.04166232729287 0 0,0 -166.1537843973629,-111.39832403183323Z"
                  fill-rule="evenodd" stroke="white"/>
            <path fill="#e377c2" stroke-width="1"
                  d="M-200.00311642570998,-141.50531233845567A245,245 0 0,1 -196.38391129336463,-146.4867208490923L-160.34679212024605,-119.6059067245981A200.04166232729287,200.04166232729287 0 0,0 -163.30186073648213,-115.53860370745902Z"
                  fill-rule="evenodd" stroke="white"/>
            <path fill="#e377c2" stroke-width="1"
                  d="M-196.38391129336463,-146.4867208490923A245,245 0 0,1 -192.64066587347162,-151.37560520713194L-157.29044503333003,-123.5976640874885A200.04166232729287,200.04166232729287 0 0,0 -160.34679212024605,-119.6059067245981Z"
                  fill-rule="evenodd" stroke="white"/>
            <path fill="#e377c2" stroke-width="1"
                  d="M-192.64066587347162,-151.37560520713194A245,245 0 0,1 -188.7757444800683,-156.16887748842905L-154.13474993006182,-127.51135451662323A200.04166232729287,200.04166232729287 0 0,0 -157.29044503333003,-123.5976640874885Z"
                  fill-rule="evenodd" stroke="white"/>
            <path fill="#e377c2" stroke-width="1"
                  d="M-188.7757444800683,-156.16887748842905A245,245 0 0,1 -184.79158828034534,-160.86351015947443L-150.88170001510602,-131.3445060412434A200.04166232729287,200.04166232729287 0 0,0 -154.13474993006182,-127.51135451662323Z"
                  fill-rule="evenodd" stroke="white"/>
            <path fill="#e377c2" stroke-width="1"
                  d="M-184.79158828034534,-160.86351015947443A245,245 0 0,1 -180.6907137527525,-165.45653798965114L-147.53334998451282,-135.09469756068856A200.04166232729287,200.04166232729287 0 0,0 -150.88170001510602,-131.3445060412434Z"
                  fill-rule="evenodd" stroke="white"/>
            <path fill="#e377c2" stroke-width="1"
                  d="M-180.6907137527525,-165.45653798965114A245,245 0 0,1 -176.4757110975372,-169.94505992413724L-144.09181472792824,-138.75956037361556A200.04166232729287,200.04166232729287 0 0,0 -147.53334998451282,-135.09469756068856Z"
                  fill-rule="evenodd" stroke="white"/>
            <path fill="#e377c2" stroke-width="1"
                  d="M-176.4757110975372,-169.94505992413724A245,245 0 0,1 -172.149242600718,-174.32624091627497L-140.55926799278387,-142.33677967412157A200.04166232729287,200.04166232729287 0 0,0 -144.09181472792824,-138.75956037361556Z"
                  fill-rule="evenodd" stroke="white"/>
            <path fill="#e377c2" stroke-width="1"
                  d="M-172.149242600718,-174.32624091627497A245,245 0 0,1 -167.71404095252862,-178.5973137182459L-136.93794101131223,-145.82409601382423A200.04166232729287,200.04166232729287 0 0,0 -140.55926799278387,-142.33677967412157Z"
                  fill-rule="evenodd" stroke="white"/>
            <path fill="#e377c2" stroke-width="1"
                  d="M-167.71404095252862,-178.5973137182459A245,245 0 0,1 -163.1729075213915,-182.75558062892475L-133.2301210912522,-149.2193067289784A200.04166232729287,200.04166232729287 0 0,0 -136.93794101131223,-145.82409601382423Z"
                  fill-rule="evenodd" stroke="white"/>
            <path fill="#e377c2" stroke-width="1"
                  d="M-163.1729075213915,-182.75558062892475A245,245 0 0,1 -158.52871058451368,-186.7984151978049L-129.4381501711364,-152.52026733172548A200.04166232729287,200.04166232729287 0 0,0 -133.2301210912522,-149.2193067289784Z"
                  fill-rule="evenodd" stroke="white"/>
            <path fill="#e377c2" stroke-width="1"
                  d="M-158.52871058451368,-186.7984151978049A245,245 0 0,1 -153.78438351622157,-190.72326388392077L-125.56442334107305,-155.72489286459776A200.04166232729287,200.04166232729287 0 0,0 -129.4381501711364,-152.52026733172548Z"
                  fill-rule="evenodd" stroke="white"/>
            <path fill="#e377c2" stroke-width="1"
                  d="M-153.78438351622157,-190.72326388392077A245,245 0 0,1 -148.94292293517822,-194.52764766871974L-121.6113873299548,-158.831159217423A200.04166232729287,200.04166232729287 0 0,0 -125.56442334107305,-155.72489286459776Z"
                  fill-rule="evenodd" stroke="white"/>
            <path fill="#7f7f7f" stroke-width="1"
                  d="M-148.94292293517822,-194.52764766871974A245,245 0 0,1 -144.00738681165578,-198.20916362186225L-117.58153896005345,-161.83710440579472A200.04166232729287,200.04166232729287 0 0,0 -121.6113873299548,-158.831159217423Z"
                  fill-rule="evenodd" stroke="white"/>
            <path fill="#2ca02c" stroke-width="1"
                  d="M-20.07652427285481,-199.03165537116988A200.04166232729287,200.04166232729287 0 0,1 -3.674705721978523e-14,-200.04166232729287L-2.5984093348760217e-14,-141.4508159514583A141.4508159514583,141.4508159514583 0 0,0 -14.196246455991957,-140.73663318373815Z"
                  fill-rule="evenodd" stroke="white"/>
            <path fill="#8c564b" stroke-width="1"
                  d="M-24.588620138547682,-243.76299916041853A245,245 0 0,1 -18.455067354343498,-244.3039305638504L-15.068499395612362,-199.47332401258845A200.04166232729287,200.04166232729287 0 0,0 -20.07652427285481,-199.03165537116988Z"
                  fill-rule="evenodd" stroke="white"/>
            <path fill="#e377c2" stroke-width="1"
                  d="M-18.455067354343498,-244.3039305638504A245,245 0 0,1 -12.309857954043691,-244.69055436847427L-10.050956931182647,-199.7890010271691A200.04166232729287,200.04166232729287 0 0,0 -15.068499395612362,-199.47332401258845Z"
                  fill-rule="evenodd" stroke="white"/>
            <path fill="#e377c2" stroke-width="1"
                  d="M-12.309857954043691,-244.69055436847427A245,245 0 0,1 -6.156873383617779,-244.92262637440848L-5.027066066928836,-199.9784870265434A200.04166232729287,200.04166232729287 0 0,0 -10.050956931182647,-199.7890010271691Z"
                  fill-rule="evenodd" stroke="white"/>
            <path fill="#8c564b" stroke-width="1"
                  d="M-6.156873383617779,-244.92262637440848A245,245 0 0,1 -4.500576986866523e-14,-245L-3.674705721978523e-14,-200.04166232729287A200.04166232729287,200.04166232729287 0 0,0 -5.027066066928836,-199.9784870265434Z"
                  fill-rule="evenodd" stroke="white"/>
            <path fill="#d62728" stroke-width="1"
                  d="M-30.051376571813098,197.77153848015075A200.04166232729287,200.04166232729287 0 0,1 -185.0539822362539,-75.97164158533693L-130.85292572483002,-53.72006294286566A141.4508159514583,141.4508159514583 0 0,0 -21.249532157919585,139.84559598501082Z"
                  fill-rule="evenodd" stroke="white"/>
            <path fill="#e377c2" stroke-width="1"
                  d="M-36.80526933458545,242.21967746078894A245,245 0 0,1 -42.880649448942656,241.2182619596553L-35.01190366302205,196.9538861473871A200.04166232729287,200.04166232729287 0 0,0 -30.051376571813098,197.77153848015075Z"
                  fill-rule="evenodd" stroke="white"/>
            <path fill="#e377c2" stroke-width="1"
                  d="M-42.880649448942656,241.2182619596553A245,245 0 0,1 -48.92894522602979,240.0644878341405L-39.95031648545331,196.01183351874138A200.04166232729287,200.04166232729287 0 0,0 -35.01190366302205,196.9538861473871Z"
                  fill-rule="evenodd" stroke="white"/>
            <path fill="#e377c2" stroke-width="1"
                  d="M-48.92894522602979,240.0644878341405A245,245 0 0,1 -54.94633643259841,238.75908383271138L-44.863495831721146,194.94597561484517A200.04166232729287,200.04166232729287 0 0,0 -39.95031648545331,196.01183351874138Z"
                  fill-rule="evenodd" stroke="white"/>
            <path fill="#e377c2" stroke-width="1"
                  d="M-54.94633643259841,238.75908383271138A245,245 0 0,1 -60.92902235538949,237.3028744765146L-49.748338432444505,193.75698565439552A200.04166232729287,200.04166232729287 0 0,0 -44.863495831721146,194.94597561484517Z"
                  fill-rule="evenodd" stroke="white"/>
            <path fill="#e377c2" stroke-width="1"
                  d="M-60.92902235538949,237.3028744765146A245,245 0 0,1 -66.87322420174469,235.69677953859102L-54.6017589163378,192.44561462893557A200.04166232729287,200.04166232729287 0 0,0 -49.748338432444505,193.75698565439552Z"
                  fill-rule="evenodd" stroke="white"/>
            <path fill="#8c564b" stroke-width="1"
                  d="M-66.87322420174469,235.69677953859102A245,245 0 0,1 -72.77518748637361,233.94181346292748L-59.42069175899828,191.01269082851215A200.04166232729287,200.04166232729287 0 0,0 -54.6017589163378,192.44561462893557Z"
                  fill-rule="evenodd" stroke="white"/>
            <path fill="#e377c2" stroke-width="1"
                  d="M-72.77518748637361,233.94181346292748A245,245 0 0,1 -78.63118440276634,232.03908472371234L-64.20209321915625,189.45911931851006A200.04166232729287,200.04166232729287 0 0,0 -59.42069175899828,191.01269082851215Z"
                  fill-rule="evenodd" stroke="white"/>
            <path fill="#e377c2" stroke-width="1"
                  d="M-78.63118440276634,232.03908472371234A245,245 0 0,1 -84.43751617775673,229.98979512519912L-68.94294326116793,187.78588136799326A200.04166232729287,200.04166232729287 0 0,0 -64.20209321915625,189.45911931851006Z"
                  fill-rule="evenodd" stroke="white"/>
            <path fill="#8c564b" stroke-width="1"
                  d="M-84.43751617775673,229.98979512519912A245,245 0 0,1 -90.1905154077462,227.79523904262155L-73.64024746253416,185.99403382991454A200.04166232729287,200.04166232729287 0 0,0 -68.94294326116793,187.78588136799326Z"
                  fill-rule="evenodd" stroke="white"/>
            <path fill="#e377c2" stroke-width="1"
                  d="M-90.1905154077462,227.79523904262155A245,245 0 0,1 -95.88654837511464,225.45680260463823L-78.29103890524212,184.08470847358433A200.04166232729287,200.04166232729287 0 0,0 -73.64024746253416,185.99403382991454Z"
                  fill-rule="evenodd" stroke="white"/>
            <path fill="#8c564b" stroke-width="1"
                  d="M-95.88654837511464,225.45680260463823A245,245 0 0,1 -101.5220173433547,222.9759628178239L-82.89238004973443,182.059111269821A200.04166232729287,200.04166232729287 0 0,0 -78.29103890524212,184.08470847358433Z"
                  fill-rule="evenodd" stroke="white"/>
            <path fill="#e377c2" stroke-width="1"
                  d="M-101.5220173433547,222.9759628178239A245,245 0 0,1 -107.09336282947861,220.3542866337609L-87.44136459032171,179.91852162923388A200.04166232729287,200.04166232729287 0 0,0 -82.89238004973443,182.059111269821Z"
                  fill-rule="evenodd" stroke="white"/>
            <path fill="#e377c2" stroke-width="1"
                  d="M-107.09336282947861,220.3542866337609A245,245 0 0,1 -112.59706585226462,217.59342995931837L-91.93511929086807,177.66429159412007A200.04166232729287,200.04166232729287 0 0,0 -87.44136459032171,179.91852162923388Z"
                  fill-rule="evenodd" stroke="white"/>
            <path fill="#8c564b" stroke-width="1"
                  d="M-112.59706585226462,217.59342995931837A245,245 0 0,1 -118.02965015492028,214.69513661074654L-96.37080579958806,175.2978449844856A200.04166232729287,200.04166232729287 0 0,0 -91.93511929086807,177.66429159412007Z"
                  fill-rule="evenodd" stroke="white"/>
            <path fill="#8c564b" stroke-width="1"
                  d="M-118.02965015492028,214.69513661074654A245,245 0 0,1 -123.38768440076147,211.66123721224463L-100.74562244181105,172.8206764987301A200.04166232729287,200.04166232729287 0 0,0 -96.37080579958806,175.2978449844856Z"
                  fill-rule="evenodd" stroke="white"/>
            <path fill="#8c564b" stroke-width="1"
                  d="M-123.38768440076147,211.66123721224463A245,245 0 0,1 -128.66778434051758,208.49364803969942L-105.0568059895786,170.23435076956326A200.04166232729287,200.04166232729287 0 0,0 -100.74562244181105,172.8206764987301Z"
                  fill-rule="evenodd" stroke="white"/>
            <path fill="#e377c2" stroke-width="1"
                  d="M-128.66778434051758,208.49364803969942A245,245 0 0,1 -133.866614949896,205.19436981032467L-109.30163340695849,167.5405013757495A200.04166232729287,200.04166232729287 0 0,0 -105.0568059895786,170.23435076956326Z"
                  fill-rule="evenodd" stroke="white"/>
            <path fill="#e377c2" stroke-width="1"
                  d="M-133.866614949896,205.19436981032467A245,245 0 0,1 -138.98089253605545,201.76548641896466L-113.477423569973,164.74082981030418A200.04166232729287,200.04166232729287 0 0,0 -109.30163340695849,167.5405013757495Z"
                  fill-rule="evenodd" stroke="white"/>
            <path fill="#e377c2" stroke-width="1"
                  d="M-138.98089253605545,201.76548641896466A245,245 0 0,1 -144.00738681165598,198.20916362186207L-117.5815389600536,161.83710440579458A200.04166232729287,200.04166232729287 0 0,0 -113.477423569973,164.74082981030418Z"
                  fill-rule="evenodd" stroke="white"/>
            <path fill="#e377c2" stroke-width="1"
                  d="M-144.00738681165598,198.20916362186207A245,245 0 0,1 -148.94292293517842,194.52764766871957L-121.61138732995497,158.83115921742285A200.04166232729287,200.04166232729287 0 0,0 -117.5815389600536,161.83710440579458Z"
                  fill-rule="evenodd" stroke="white"/>
            <path fill="#e377c2" stroke-width="1"
                  d="M-148.94292293517842,194.52764766871957A245,245 0 0,1 -153.78438351622168,190.72326388392068L-125.56442334107314,155.72489286459768A200.04166232729287,200.04166232729287 0 0,0 -121.61138732995497,158.83115921742285Z"
                  fill-rule="evenodd" stroke="white"/>
            <path fill="#8c564b" stroke-width="1"
                  d="M-153.78438351622168,190.72326388392068A245,245 0 0,1 -158.52871058451396,186.79841519780462L-129.43815017113667,152.52026733172525A200.04166232729287,200.04166232729287 0 0,0 -125.56442334107314,155.72489286459768Z"
                  fill-rule="evenodd" stroke="white"/>
            <path fill="#8c564b" stroke-width="1"
                  d="M-158.52871058451396,186.79841519780462A245,245 0 0,1 -163.1729075213918,182.75558062892452L-133.2301210912524,149.2193067289782A200.04166232729287,200.04166232729287 0 0,0 -129.43815017113667,152.52026733172525Z"
                  fill-rule="evenodd" stroke="white"/>
            <path fill="#8c564b" stroke-width="1"
                  d="M-163.1729075213918,182.75558062892452A245,245 0 0,1 -167.71404095252882,178.59731371824572L-136.9379410113124,145.8240960138241A200.04166232729287,200.04166232729287 0 0,0 -133.2301210912524,149.2193067289782Z"
                  fill-rule="evenodd" stroke="white"/>
            <path fill="#e377c2" stroke-width="1"
                  d="M-167.71404095252882,178.59731371824572A245,245 0 0,1 -172.1492426007182,174.32624091627477L-140.55926799278404,142.3367796741214A200.04166232729287,200.04166232729287 0 0,0 -136.9379410113124,145.8240960138241Z"
                  fill-rule="evenodd" stroke="white"/>
            <path fill="#e377c2" stroke-width="1"
                  d="M-172.1492426007182,174.32624091627477A245,245 0 0,1 -176.47571109753727,169.94505992413713L-144.09181472792835,138.75956037361547A200.04166232729287,200.04166232729287 0 0,0 -140.55926799278404,142.3367796741214Z"
                  fill-rule="evenodd" stroke="white"/>
            <path fill="#8c564b" stroke-width="1"
                  d="M-176.47571109753727,169.94505992413713A245,245 0 0,1 -180.6907137527527,165.45653798965085L-147.53334998451302,135.09469756068833A200.04166232729287,200.04166232729287 0 0,0 -144.09181472792835,138.75956037361547Z"
                  fill-rule="evenodd" stroke="white"/>
            <path fill="#e377c2" stroke-width="1"
                  d="M-180.6907137527527,165.45653798965085A245,245 0 0,1 -184.79158828034554,160.86351015947423L-150.88170001510616,131.34450604124322A200.04166232729287,200.04166232729287 0 0,0 -147.53334998451302,135.09469756068833Z"
                  fill-rule="evenodd" stroke="white"/>
            <path fill="#8c564b" stroke-width="1"
                  d="M-184.79158828034554,160.86351015947423A245,245 0 0,1 -188.7757444800684,156.16887748842893L-154.1347499300619,127.51135451662314A200.04166232729287,200.04166232729287 0 0,0 -150.88170001510616,131.34450604124322Z"
                  fill-rule="evenodd" stroke="white"/>
            <path fill="#e377c2" stroke-width="1"
                  d="M-188.7757444800684,156.16887748842893A245,245 0 0,1 -192.64066587347168,151.37560520713183L-157.2904450333301,123.59766408748841A200.04166232729287,200.04166232729287 0 0,0 -154.1347499300619,127.51135451662314Z"
                  fill-rule="evenodd" stroke="white"/>
            <path fill="#8c564b" stroke-width="1"
                  d="M-192.64066587347168,151.37560520713183A245,245 0 0,1 -196.38391129336486,146.48672084909197L-160.34679212024625,119.60590672459783A200.04166232729287,200.04166232729287 0 0,0 -157.2904450333301,123.59766408748841Z"
                  fill-rule="evenodd" stroke="white"/>
            <path fill="#8c564b" stroke-width="1"
                  d="M-196.38391129336486,146.48672084909197A245,245 0 0,1 -200.0031164257102,141.50531233845538L-163.3018607364823,115.53860370745878A200.04166232729287,200.04166232729287 0 0,0 -160.34679212024625,119.60590672459783Z"
                  fill-rule="evenodd" stroke="white"/>
            <path fill="#e377c2" stroke-width="1"
                  d="M-200.0031164257102,141.50531233845538A245,245 0 0,1 -203.49599530297425,136.43452603960583L-166.15378439736307,111.39832403183296A200.04166232729287,200.04166232729287 0 0,0 -163.3018607364823,115.53860370745878Z"
                  fill-rule="evenodd" stroke="white"/>
            <path fill="#e377c2" stroke-width="1"
                  d="M-203.49599530297425,136.43452603960583A245,245 0 0,1 -206.86034174799374,131.27756476985408L-168.90076176677783,107.18768278710395A200.04166232729287,200.04166232729287 0 0,0 -166.15378439736307,111.39832403183296Z"
                  fill-rule="evenodd" stroke="white"/>
            <path fill="#8c564b" stroke-width="1"
                  d="M-206.86034174799374,131.27756476985408A245,245 0 0,1 -210.0940307674449,126.03768577646893L-171.54105779494324,102.90933950452997A200.04166232729287,200.04166232729287 0 0,0 -168.90076176677783,107.18768278710395Z"
                  fill-rule="evenodd" stroke="white"/>
            <path fill="#e377c2" stroke-width="1"
                  d="M-210.0940307674449,126.03768577646893A245,245 0 0,1 -213.1950198940339,120.71819867933125L-174.0730048142972,98.5659964774279A200.04166232729287,200.04166232729287 0 0,0 -171.54105779494324,102.90933950452997Z"
                  fill-rule="evenodd" stroke="white"/>
            <path fill="#e377c2" stroke-width="1"
                  d="M-213.1950198940339,120.71819867933125A245,245 0 0,1 -216.16135047656365,115.32246338050625L-176.4950035928341,94.16039705434623A200.04166232729287,200.04166232729287 0 0,0 -174.0730048142972,98.5659964774279Z"
                  fill-rule="evenodd" stroke="white"/>
            <path fill="#8c564b" stroke-width="1"
                  d="M-216.16135047656365,115.32246338050625A245,245 0 0,1 -218.99114891705977,109.85388794205763L-178.80552434421378,89.69532390630759A200.04166232729287,200.04166232729287 0 0,0 -176.4950035928341,94.16039705434623Z"
                  fill-rule="evenodd" stroke="white"/>
            <path fill="#e377c2" stroke-width="1"
                  d="M-218.99114891705977,109.85388794205763A245,245 0 0,1 -221.68262785417485,104.31592643344267L-181.00310769400724,85.17359726921413A200.04166232729287,200.04166232729287 0 0,0 -178.80552434421378,89.69532390630759Z"
                  fill-rule="evenodd" stroke="white"/>
            <path fill="#8c564b" stroke-width="1"
                  d="M-221.68262785417485,104.31592643344267A245,245 0 0,1 -224.23408729212488,98.71207674984717L-183.08636560146923,80.5980731625255A200.04166232729287,200.04166232729287 0 0,0 -181.00310769400724,85.17359726921413Z"
                  fill-rule="evenodd" stroke="white"/>
            <path fill="#e377c2" stroke-width="1"
                  d="M-224.23408729212488,98.71207674984717A245,245 0 0,1 -226.64391567444233,93.04587840284104L-185.053982236254,75.97164158533666A200.04166232729287,200.04166232729287 0 0,0 -183.08636560146923,80.5980731625255Z"
                  fill-rule="evenodd" stroke="white"/>
            <path fill="#e377c2" stroke-width="1"
                  d="M-226.64391567444233,93.04587840284104A245,245 0 0,1 -228.91059090187005,87.32091028474613L-186.90471480952232,71.29722469099192A200.04166232729287,200.04166232729287 0 0,0 -185.053982236254,75.97164158533666Z"
                  fill-rule="evenodd" stroke="white"/>
            <path fill="#e377c2" stroke-width="1"
                  d="M-228.91059090187005,87.32091028474613A245,245 0 0,1 -231.03268129375184,81.5407884081316L-188.63739435891338,66.5777749413906A200.04166232729287,200.04166232729287 0 0,0 -186.90471480952232,71.29722469099192Z"
                  fill-rule="evenodd" stroke="white"/>
            <path fill="#7f7f7f" stroke-width="1"
                  d="M-231.03268129375184,81.5407884081316A245,245 0 0,1 -233.0088464923127,75.70916362186193L-190.25092648688667,61.81627324214804A200.04166232729287,200.04166232729287 0 0,0 -188.63739435891338,66.5777749413906Z"
                  fill-rule="evenodd" stroke="white"/>
            <path fill="#7f7f7f" stroke-width="1"
                  d="M-233.0088464923127,75.70916362186193A245,245 0 0,1 -234.83783830925717,69.82971930514391L-191.74429205196662,57.01572705979283A200.04166232729287,200.04166232729287 0 0,0 -190.25092648688667,61.81627324214804Z"
                  fill-rule="evenodd" stroke="white"/>
            <path fill="#7f7f7f" stroke-width="1"
                  d="M-234.83783830925717,69.82971930514391A245,245 0 0,1 -236.51850151415218,63.90616904102446L-193.11654781245443,52.17916852218577A200.04166232729287,200.04166232729287 0 0,0 -191.74429205196662,57.01572705979283Z"
                  fill-rule="evenodd" stroke="white"/>
            <path fill="#7f7f7f" stroke-width="1"
                  d="M-236.51850151415218,63.90616904102446A245,245 0 0,1 -238.0497745640952,57.942254270812214L-194.3668270221997,47.309652503363104A200.04166232729287,200.04166232729287 0 0,0 -193.11654781245443,52.17916852218577Z"
                  fill-rule="evenodd" stroke="white"/>
            <path fill="#7f7f7f" stroke-width="1"
                  d="M-238.0497745640952,57.942254270812214A245,245 0 0,1 -239.43069027420742,51.94174193090321L-195.4943399780557,42.41025469401277A200.04166232729287,200.04166232729287 0 0,0 -194.3668270221997,47.309652503363104Z"
                  fill-rule="evenodd" stroke="white"/>
            <path fill="#7f7f7f" stroke-width="1"
                  d="M-239.43069027420742,51.94174193090321A245,245 0 0,1 -240.66037642852876,45.9084220735023L-196.49837451867324,37.48406965880157A200.04166232729287,200.04166232729287 0 0,0 -195.4943399780557,42.41025469401277Z"
                  fill-rule="evenodd" stroke="white"/>
            <path fill="#7f7f7f" stroke-width="1"
                  d="M-240.66037642852876,45.9084220735023A245,245 0 0,1 -241.73805633092772,39.846105472746196L-197.3782964743165,32.534208881782824A200.04166232729287,200.04166232729287 0 0,0 -196.49837451867324,37.48406965880157Z"
                  fill-rule="evenodd" stroke="white"/>
            <path fill="#7f7f7f" stroke-width="1"
                  d="M-241.73805633092772,39.846105472746196A245,245 0 0,1 -242.6630492956796,33.75862121773599L-198.1335500674186,27.56379880111562A200.04166232729287,200.04166232729287 0 0,0 -197.3782964743165,32.534208881782824Z"
                  fill-rule="evenodd" stroke="white"/>
            <path fill="#7f7f7f" stroke-width="1"
                  d="M-242.6630492956796,33.75862121773599A245,245 0 0,1 -243.4347710774021,27.649814294002628L-198.76365826362252,22.57597883433971A200.04166232729287,200.04166232729287 0 0,0 -198.1335500674186,27.56379880111562Z"
                  fill-rule="evenodd" stroke="white"/>
            <path fill="#7f7f7f" stroke-width="1"
                  d="M-243.4347710774021,27.649814294002628A245,245 0 0,1 -244.05273424007726,21.523543154931854L-199.26822307308606,17.57389939545222A200.04166232729287,200.04166232729287 0 0,0 -198.76365826362252,22.57597883433971Z"
                  fill-rule="evenodd" stroke="white"/>
            <path fill="#7f7f7f" stroke-width="1"
                  d="M-244.05273424007726,21.523543154931854A245,245 0 0,1 -244.51654846492656,15.383677284681502L-199.64692580186113,12.560719905037969A200.04166232729287,200.04166232729287 0 0,0 -199.26822307308606,17.57389939545222Z"
                  fill-rule="evenodd" stroke="white"/>
            <path fill="#7f7f7f" stroke-width="1"
                  d="M-244.51654846492656,15.383677284681502A245,245 0 0,1 -244.8259207969444,9.234094754133634L-199.89952725318733,7.539606794712763A200.04166232729287,200.04166232729287 0 0,0 -199.64692580186113,12.560719905037969Z"
                  fill-rule="evenodd" stroke="white"/>
            <path fill="#7f7f7f" stroke-width="1"
                  d="M-244.8259207969444,9.234094754133634A245,245 0 0,1 -244.98065582993496,3.07867977142101L-200.02586787857388,2.5137315071366073A200.04166232729287,200.04166232729287 0 0,0 -199.89952725318733,7.539606794712763Z"
                  fill-rule="evenodd" stroke="white"/>
            <path fill="#7f7f7f" stroke-width="1"
                  d="M-244.98065582993496,3.07867977142101A245,245 0 0,1 -244.98065582993496,-3.0786797714216028L-200.02586787857388,-2.5137315071370914A200.04166232729287,200.04166232729287 0 0,0 -200.02586787857388,2.5137315071366073Z"
                  fill-rule="evenodd" stroke="white"/>
            <path fill="#7f7f7f" stroke-width="1"
                  d="M-244.98065582993496,-3.0786797714216028A245,245 0 0,1 -244.82592079694436,-9.234094754134228L-199.8995272531873,-7.539606794713247A200.04166232729287,200.04166232729287 0 0,0 -200.02586787857388,-2.5137315071370914Z"
                  fill-rule="evenodd" stroke="white"/>
            <path fill="#7f7f7f" stroke-width="1"
                  d="M-244.82592079694436,-9.234094754134228A245,245 0 0,1 -244.5165484649265,-15.383677284682094L-199.6469258018611,-12.560719905038452A200.04166232729287,200.04166232729287 0 0,0 -199.8995272531873,-7.539606794713247Z"
                  fill-rule="evenodd" stroke="white"/>
            <path fill="#7f7f7f" stroke-width="1"
                  d="M-244.5165484649265,-15.383677284682094A245,245 0 0,1 -244.0527342400772,-21.523543154932447L-199.268223073086,-17.573899395452703A200.04166232729287,200.04166232729287 0 0,0 -199.6469258018611,-12.560719905038452Z"
                  fill-rule="evenodd" stroke="white"/>
            <path fill="#7f7f7f" stroke-width="1"
                  d="M-244.0527342400772,-21.523543154932447A245,245 0 0,1 -243.434771077402,-27.649814294003434L-198.7636582636224,-22.57597883434037A200.04166232729287,200.04166232729287 0 0,0 -199.268223073086,-17.573899395452703Z"
                  fill-rule="evenodd" stroke="white"/>
            <path fill="#7f7f7f" stroke-width="1"
                  d="M-243.434771077402,-27.649814294003434A245,245 0 0,1 -242.6630492956795,-33.75862121773658L-198.13355006741855,-27.563798801116103A200.04166232729287,200.04166232729287 0 0,0 -198.7636582636224,-22.57597883434037Z"
                  fill-rule="evenodd" stroke="white"/>
            <path fill="#7f7f7f" stroke-width="1"
                  d="M-242.6630492956795,-33.75862121773658A245,245 0 0,1 -241.7380563309276,-39.846105472746785L-197.37829647431641,-32.5342088817833A200.04166232729287,200.04166232729287 0 0,0 -198.13355006741855,-27.563798801116103Z"
                  fill-rule="evenodd" stroke="white"/>
            <path fill="#7f7f7f" stroke-width="1"
                  d="M-241.7380563309276,-39.846105472746785A245,245 0 0,1 -240.66037642852865,-45.90842207350289L-196.49837451867316,-37.484069658802056A200.04166232729287,200.04166232729287 0 0,0 -197.37829647431641,-32.5342088817833Z"
                  fill-rule="evenodd" stroke="white"/>
            <path fill="#7f7f7f" stroke-width="1"
                  d="M-240.66037642852865,-45.90842207350289A245,245 0 0,1 -239.4306902742073,-51.94174193090379L-195.49433997805562,-42.41025469401325A200.04166232729287,200.04166232729287 0 0,0 -196.49837451867316,-37.484069658802056Z"
                  fill-rule="evenodd" stroke="white"/>
            <path fill="#7f7f7f" stroke-width="1"
                  d="M-239.4306902742073,-51.94174193090379A245,245 0 0,1 -238.049774564095,-57.942254270813L-194.36682702219954,-47.30965250336374A200.04166232729287,200.04166232729287 0 0,0 -195.49433997805562,-42.41025469401325Z"
                  fill-rule="evenodd" stroke="white"/>
            <path fill="#7f7f7f" stroke-width="1"
                  d="M-238.049774564095,-57.942254270813A245,245 0 0,1 -236.518501514152,-63.90616904102504L-193.11654781245431,-52.17916852218624A200.04166232729287,200.04166232729287 0 0,0 -194.36682702219954,-47.30965250336374Z"
                  fill-rule="evenodd" stroke="white"/>
            <path fill="#7f7f7f" stroke-width="1"
                  d="M-236.518501514152,-63.90616904102504A245,245 0 0,1 -234.837838309257,-69.8297193051445L-191.74429205196648,-57.01572705979329A200.04166232729287,200.04166232729287 0 0,0 -193.11654781245431,-52.17916852218624Z"
                  fill-rule="evenodd" stroke="white"/>
            <path fill="#7f7f7f" stroke-width="1"
                  d="M-234.837838309257,-69.8297193051445A245,245 0 0,1 -233.0088464923125,-75.7091636218625L-190.25092648688653,-61.81627324214851A200.04166232729287,200.04166232729287 0 0,0 -191.74429205196648,-57.01572705979329Z"
                  fill-rule="evenodd" stroke="white"/>
            <path fill="#7f7f7f" stroke-width="1"
                  d="M-233.0088464923125,-75.7091636218625A245,245 0 0,1 -231.03268129375164,-81.54078840813216L-188.6373943589132,-66.57777494139106A200.04166232729287,200.04166232729287 0 0,0 -190.25092648688653,-61.81627324214851Z"
                  fill-rule="evenodd" stroke="white"/>
            <path fill="#7f7f7f" stroke-width="1"
                  d="M-231.03268129375164,-81.54078840813216A245,245 0 0,1 -228.91059090186985,-87.32091028474669L-186.90471480952218,-71.29722469099238A200.04166232729287,200.04166232729287 0 0,0 -188.6373943589132,-66.57777494139106Z"
                  fill-rule="evenodd" stroke="white"/>
            <path fill="#7f7f7f" stroke-width="1"
                  d="M-228.91059090186985,-87.32091028474669A245,245 0 0,1 -226.6439156744421,-93.04587840284158L-185.0539822362538,-75.9716415853371A200.04166232729287,200.04166232729287 0 0,0 -186.90471480952218,-71.29722469099238Z"
                  fill-rule="evenodd" stroke="white"/>
            <path fill="#9467bd" stroke-width="1"
                  d="M-117.58153896005358,-161.8371044057946A200.04166232729287,200.04166232729287 0 0,1 -20.07652427285481,-199.03165537116988L-14.196246455991957,-140.73663318373815A141.4508159514583,141.4508159514583 0 0,0 -83.14270354100412,-114.43611397293266Z"
                  fill-rule="evenodd" stroke="white"/>
            <path fill="#8c564b" stroke-width="1"
                  d="M-144.00738681165595,-198.2091636218621A245,245 0 0,1 -138.9808925360553,-201.7654864189647L-113.47742356997288,-164.74082981030423A200.04166232729287,200.04166232729287 0 0,0 -117.58153896005358,-161.8371044057946Z"
                  fill-rule="evenodd" stroke="white"/>
            <path fill="#8c564b" stroke-width="1"
                  d="M-138.9808925360553,-201.7654864189647A245,245 0 0,1 -133.86661494989588,-205.19436981032476L-109.3016334069584,-167.54050137574956A200.04166232729287,200.04166232729287 0 0,0 -113.47742356997288,-164.74082981030423Z"
                  fill-rule="evenodd" stroke="white"/>
            <path fill="#e377c2" stroke-width="1"
                  d="M-133.86661494989588,-205.19436981032476A245,245 0 0,1 -128.66778434051733,-208.49364803969956L-105.05680598957841,-170.23435076956338A200.04166232729287,200.04166232729287 0 0,0 -109.3016334069584,-167.54050137574956Z"
                  fill-rule="evenodd" stroke="white"/>
            <path fill="#e377c2" stroke-width="1"
                  d="M-128.66778434051733,-208.49364803969956A245,245 0 0,1 -123.38768440076144,-211.66123721224463L-100.74562244181104,-172.8206764987301A200.04166232729287,200.04166232729287 0 0,0 -105.05680598957841,-170.23435076956338Z"
                  fill-rule="evenodd" stroke="white"/>
            <path fill="#e377c2" stroke-width="1"
                  d="M-123.38768440076144,-211.66123721224463A245,245 0 0,1 -118.02965015492025,-214.69513661074657L-96.37080579958803,-175.29784498448564A200.04166232729287,200.04166232729287 0 0,0 -100.74562244181104,-172.8206764987301Z"
                  fill-rule="evenodd" stroke="white"/>
            <path fill="#e377c2" stroke-width="1"
                  d="M-118.02965015492025,-214.69513661074657A245,245 0 0,1 -112.59706585226448,-217.59342995931843L-91.93511929086796,-177.6642915941201A200.04166232729287,200.04166232729287 0 0,0 -96.37080579958803,-175.29784498448564Z"
                  fill-rule="evenodd" stroke="white"/>
            <path fill="#8c564b" stroke-width="1"
                  d="M-112.59706585226448,-217.59342995931843A245,245 0 0,1 -107.09336282947847,-220.35428663376095L-87.44136459032158,-179.9185216292339A200.04166232729287,200.04166232729287 0 0,0 -91.93511929086796,-177.6642915941201Z"
                  fill-rule="evenodd" stroke="white"/>
            <path fill="#e377c2" stroke-width="1"
                  d="M-107.09336282947847,-220.35428663376095A245,245 0 0,1 -101.52201734335468,-222.9759628178239L-82.89238004973438,-182.059111269821A200.04166232729287,200.04166232729287 0 0,0 -87.44136459032158,-179.9185216292339Z"
                  fill-rule="evenodd" stroke="white"/>
            <path fill="#8c564b" stroke-width="1"
                  d="M-101.52201734335468,-222.9759628178239A245,245 0 0,1 -95.8865483751146,-225.45680260463826L-78.29103890524206,-184.08470847358436A200.04166232729287,200.04166232729287 0 0,0 -82.89238004973438,-182.059111269821Z"
                  fill-rule="evenodd" stroke="white"/>
            <path fill="#e377c2" stroke-width="1"
                  d="M-95.8865483751146,-225.45680260463826A245,245 0 0,1 -90.19051540774606,-227.7952390426216L-73.64024746253405,-185.99403382991457A200.04166232729287,200.04166232729287 0 0,0 -78.29103890524206,-184.08470847358436Z"
                  fill-rule="evenodd" stroke="white"/>
            <path fill="#7f7f7f" stroke-width="1"
                  d="M-90.19051540774606,-227.7952390426216A245,245 0 0,1 -84.43751617775658,-229.98979512519918L-68.9429432611678,-187.7858813679933A200.04166232729287,200.04166232729287 0 0,0 -73.64024746253405,-185.99403382991457Z"
                  fill-rule="evenodd" stroke="white"/>
            <path fill="#7f7f7f" stroke-width="1"
                  d="M-84.43751617775658,-229.98979512519918A245,245 0 0,1 -78.6311844027662,-232.0390847237124L-64.20209321915613,-189.4591193185101A200.04166232729287,200.04166232729287 0 0,0 -68.9429432611678,-187.7858813679933Z"
                  fill-rule="evenodd" stroke="white"/>
            <path fill="#7f7f7f" stroke-width="1"
                  d="M-78.6311844027662,-232.0390847237124A245,245 0 0,1 -72.77518748637357,-233.9418134629275L-59.420691758998245,-191.01269082851218A200.04166232729287,200.04166232729287 0 0,0 -64.20209321915613,-189.4591193185101Z"
                  fill-rule="evenodd" stroke="white"/>
            <path fill="#7f7f7f" stroke-width="1"
                  d="M-72.77518748637357,-233.9418134629275A245,245 0 0,1 -66.87322420174465,-235.69677953859104L-54.601758916337765,-192.4456146289356A200.04166232729287,200.04166232729287 0 0,0 -59.420691758998245,-191.01269082851218Z"
                  fill-rule="evenodd" stroke="white"/>
            <path fill="#7f7f7f" stroke-width="1"
                  d="M-66.87322420174465,-235.69677953859104A245,245 0 0,1 -60.929022355389336,-237.30287447651463L-49.74833843244438,-193.75698565439555A200.04166232729287,200.04166232729287 0 0,0 -54.601758916337765,-192.4456146289356Z"
                  fill-rule="evenodd" stroke="white"/>
            <path fill="#7f7f7f" stroke-width="1"
                  d="M-60.929022355389336,-237.30287447651463A245,245 0 0,1 -54.94633643259825,-238.7590838327114L-44.86349583172102,-194.94597561484517A200.04166232729287,200.04166232729287 0 0,0 -49.74833843244438,-193.75698565439555Z"
                  fill-rule="evenodd" stroke="white"/>
            <path fill="#7f7f7f" stroke-width="1"
                  d="M-54.94633643259825,-238.7590838327114A245,245 0 0,1 -48.92894522602953,-240.06448783414052L-39.950316485453094,-196.0118335187414A200.04166232729287,200.04166232729287 0 0,0 -44.86349583172102,-194.94597561484517Z"
                  fill-rule="evenodd" stroke="white"/>
            <path fill="#7f7f7f" stroke-width="1"
                  d="M-48.92894522602953,-240.06448783414052A245,245 0 0,1 -42.880649448942606,-241.21826195965534L-35.01190366302202,-196.95388614738712A200.04166232729287,200.04166232729287 0 0,0 -39.950316485453094,-196.0118335187414Z"
                  fill-rule="evenodd" stroke="white"/>
            <path fill="#7f7f7f" stroke-width="1"
                  d="M-42.880649448942606,-241.21826195965534A245,245 0 0,1 -36.8052693345854,-242.21967746078894L-30.05137657181306,-197.77153848015075A200.04166232729287,200.04166232729287 0 0,0 -35.01190366302202,-196.95388614738712Z"
                  fill-rule="evenodd" stroke="white"/>
            <path fill="#7f7f7f" stroke-width="1"
                  d="M-36.8052693345854,-242.21967746078894A245,245 0 0,1 -30.706642223254413,-243.06810182204708L-25.071868387058174,-198.4642740702938A200.04166232729287,200.04166232729287 0 0,0 -30.05137657181306,-197.77153848015075Z"
                  fill-rule="evenodd" stroke="white"/>
            <path fill="#7f7f7f" stroke-width="1"
                  d="M-30.706642223254413,-243.06810182204708A245,245 0 0,1 -24.588620138547466,-243.76299916041856L-20.076524272854634,-199.0316553711699A200.04166232729287,200.04166232729287 0 0,0 -25.071868387058174,-198.4642740702938Z"
                  fill-rule="evenodd" stroke="white"/>
            <g width="282.9016319029166" id="explanation"
               style="position: absolute; top: 260px; left: 0px; text-align: center; color: rgb(102, 102, 102); z-index: -1;"
               display="inline">
                <text width="282.9016319029166" font-size="2.5em"
                      id="percentage" class="knime-label"
                      alignment-baseline="middle" text-anchor="middle"/>
                <text font-size="1.8em" y="30" alignment-baseline="middle"
                      text-anchor="middle" width="282.9016319029166"
                      class="knime-label" id="explanationText"
                      font-weight="lighter"/>
            </g>
            <circle fill="none" r="141.4508159514583" id="donut_hole_button"
                    pointer-events="all"/>
        </g>
        <g class="knime-tooltip" id="trail">
            <text class="knime-tooltip-value" fill="#000" id="endlabel"/>
        </g>
        <g width="100" height="168" class="knime-legend"
           transform="translate(680, 40)">
            <g transform="translate(0,0)">
                <circle fill="#1f77b4" r="6" cx="0" class="knime-legend-symbol"
                        cy="4.5"/>
                <text x="11" width="100" dy="0.35em" y="6" font-size="12"
                      class="knime-legend-label">
                    enough
                </text>
            </g>
            <g transform="translate(0,21)">
                <circle fill="#ff7f0e" r="6" cx="0" class="knime-legend-symbol"
                        cy="4.5"/>
                <text x="11" width="100" dy="0.35em" y="6" font-size="12"
                      class="knime-legend-label">
                    dry
                </text>
            </g>
            <g transform="translate(0,42)">
                <circle fill="#2ca02c" r="6" cx="0" class="knime-legend-symbol"
                        cy="4.5"/>
                <text x="11" width="100" dy="0.35em" y="6" font-size="12"
                      class="knime-legend-label">
                    unknown
                </text>
            </g>
            <g transform="translate(0,63)">
                <circle fill="#d62728" r="6" cx="0" class="knime-legend-symbol"
                        cy="4.5"/>
                <text x="11" width="100" dy="0.35em" y="6" font-size="12"
                      class="knime-legend-label">
                    insufficient
                </text>
            </g>
            <g transform="translate(0,84)">
                <circle fill="#9467bd" r="6" cx="0" class="knime-legend-symbol"
                        cy="4.5"/>
                <text x="11" width="100" dy="0.35em" y="6" font-size="12"
                      class="knime-legend-label">
                    seasonal
                </text>
            </g>
            <g transform="translate(0,105)">
                <circle fill="#8c564b" r="6" cx="0" class="knime-legend-symbol"
                        cy="4.5"/>
                <text x="11" width="100" dy="0.35em" y="6" font-size="12"
                      class="knime-legend-label">
                    functional
                </text>
            </g>
            <g transform="translate(0,126)">
                <circle fill="#e377c2" r="6" cx="0" class="knime-legend-symbol"
                        cy="4.5"/>
                <text x="11" width="100" dy="0.35em" y="6" font-size="12"
                      class="knime-legend-label">
                    non functional
                </text>
            </g>
            <g transform="translate(0,147)">
                <circle fill="#7f7f7f" r="6" cx="0" class="knime-legend-symbol"
                        cy="4.5"/>
                <text x="11" width="100" dy="0.35em" y="6" font-size="12"
                      class="knime-legend-label">
                    functional need...
                </text>
            </g>
        </g>
    </g>
</svg>